<svg width="20" height="23" viewBox="0 0 20 23" fill="none" xmlns="http://www.w3.org/2000/svg">
<path d="M17.2612 5L16.6415 15.0251C16.4832 17.5864 16.404 18.8671 15.762 19.7879C15.4446 20.2431 15.0359 20.6273 14.5619 20.916C13.6033 21.5 12.3202 21.5 9.75397 21.5C7.18435 21.5 5.89953 21.5 4.94028 20.9149C4.46603 20.6257 4.05723 20.2408 3.73992 19.7848C3.09811 18.8626 3.02068 17.5801 2.86584 15.0152L2.26123 5" stroke="black" stroke-width="1.5" stroke-linecap="round"/>
<path d="M18.7612 5H0.76123" stroke="black" stroke-width="1.5" stroke-linecap="round"/>
<path d="M13.8168 5L13.1341 3.59173C12.6806 2.65626 12.4539 2.18852 12.0628 1.89681C11.976 1.8321 11.8841 1.77454 11.7881 1.7247C11.355 1.5 10.8352 1.5 9.79557 1.5C8.72987 1.5 8.19702 1.5 7.75672 1.73412C7.65914 1.78601 7.56603 1.8459 7.47834 1.91317C7.08268 2.2167 6.86167 2.70155 6.41965 3.67126L5.81396 5" stroke="black" stroke-width="1.5" stroke-linecap="round"/>
<path d="M7.26123 16L7.26123 10" stroke="black" stroke-width="1.5" stroke-linecap="round"/>
<path d="M12.2612 16L12.2612 10" stroke="black" stroke-width="1.5" stroke-linecap="round"/>
</svg>
