<svg width="20" height="21" viewBox="0 0 20 21" fill="none" xmlns="http://www.w3.org/2000/svg">
<path d="M19.1719 5.02847L15.3125 2.71519H15.3047L15.2656 2.69878H15.25L15.2109 2.68237H12.5C12.3342 2.68237 12.1752 2.75151 12.058 2.87458C11.9408 2.99765 11.875 3.16457 11.875 3.33862C11.875 3.86077 11.6774 4.36153 11.3258 4.73074C10.9742 5.09995 10.4973 5.30737 9.99998 5.30737C9.5027 5.30737 9.02579 5.09995 8.67416 4.73074C8.32252 4.36153 8.12498 3.86077 8.12498 3.33862C8.12498 3.16457 8.05913 2.99765 7.94192 2.87458C7.82471 2.75151 7.66574 2.68237 7.49998 2.68237H4.78904L4.74998 2.69878H4.73436L4.69529 2.71519H4.68748L0.828106 5.02847C0.54983 5.19305 0.342623 5.46386 0.249514 5.78465C0.156406 6.10543 0.184551 6.45155 0.328106 6.75112L1.76561 9.77808C1.86984 9.99527 2.0295 10.1778 2.22677 10.3053C2.42404 10.4327 2.65116 10.5001 2.88279 10.5H4.37498V17.0625C4.37498 17.4105 4.50668 17.7444 4.7411 17.9905C4.97552 18.2367 5.29346 18.375 5.62498 18.375H14.375C14.7065 18.375 15.0244 18.2367 15.2589 17.9905C15.4933 17.7444 15.625 17.4105 15.625 17.0625V10.5H17.1172C17.3488 10.5001 17.5759 10.4327 17.7732 10.3053C17.9705 10.1778 18.1301 9.99527 18.2344 9.77808L19.6719 6.75112C19.8154 6.45155 19.8436 6.10543 19.7504 5.78465C19.6573 5.46386 19.4501 5.19305 19.1719 5.02847ZM2.88279 9.18745L1.44529 6.1687L4.37498 4.41323V9.18745H2.88279ZM14.375 17.0625H5.62498V3.93745H6.93748C7.08093 4.6792 7.46419 5.34608 8.02232 5.82507C8.58045 6.30407 9.27913 6.56574 9.99998 6.56574C10.7208 6.56574 11.4195 6.30407 11.9776 5.82507C12.5358 5.34608 12.919 4.6792 13.0625 3.93745H14.375V17.0625ZM17.1172 9.18745H15.625V4.41323L18.5547 6.1687L17.1172 9.18745Z" fill="#0C0C0C"/>
</svg>
