<svg width="36" height="29" viewBox="0 0 36 29" fill="none" xmlns="http://www.w3.org/2000/svg">
<path d="M34.8 25.85L19.75 14.5625V12.97C22.6375 12.1125 24.65 9.17253 24.0025 5.88253C23.5475 3.59003 21.7275 1.68253 19.435 1.15753C15.445 0.247532 11.875 3.27503 11.875 7.12503H15.375C15.375 5.67253 16.5475 4.50003 18 4.50003C19.4525 4.50003 20.625 5.67253 20.625 7.12503C20.625 8.59503 19.4175 9.78503 17.9475 9.75003C17.0025 9.73253 16.25 10.5375 16.25 11.4825V14.5625L1.19997 25.85C-0.147534 26.865 0.569966 29 2.24997 29H18H33.75C35.43 29 36.1475 26.865 34.8 25.85ZM7.49997 25.5L18 17.625L28.5 25.5H7.49997Z" fill="black"/>
</svg>
