<svg width="22" height="24" viewBox="0 0 22 24" fill="none" xmlns="http://www.w3.org/2000/svg">
<path d="M22 16.2268H21.9837C21.9893 14.8733 21.9949 13.5202 22 12.1667C22.0014 11.763 21.8987 11.6618 21.4884 11.66C19.819 11.6529 18.149 11.6464 16.4795 11.6398C16.3904 11.6398 16.3007 11.6389 16.2139 11.6389C16.2195 10.2573 16.2247 8.91311 16.2303 7.5254C16.6247 7.81905 16.9896 8.09069 17.3546 8.3628C17.6599 8.59042 17.7747 8.58527 18.0365 8.32487C18.9578 7.40925 19.8787 6.49269 20.7986 5.57567C21.0791 5.29607 21.0819 5.14526 20.8089 4.86847C19.4862 3.52899 18.1616 2.1914 16.8389 0.851923C16.522 0.531105 16.1575 0.288033 15.7257 0.153149C15.5946 0.112403 15.462 0.0772773 15.3299 0.0393411L5.73024 0C5.20237 0.121302 4.70623 0.310046 4.31278 0.700647C2.92099 2.08133 1.53107 3.46343 0.142544 4.84739C-0.0525491 5.04176 -0.0460149 5.2319 0.153746 5.43657C0.356307 5.64405 0.559801 5.85012 0.763762 6.05619L2.10935 7.41627C2.13175 7.4322 2.15462 7.45281 2.17889 7.4795C2.21529 7.51978 2.25263 7.55865 2.2895 7.59799L2.96299 8.27897C3.20196 8.51829 3.33264 8.52672 3.61035 8.32346C3.94266 8.07992 4.27311 7.83404 4.60542 7.59097C4.65022 7.55818 4.70203 7.53523 4.77344 7.49496C4.77297 7.61392 4.77251 7.69916 4.77251 7.7844C4.77064 8.31503 4.76644 8.84567 4.76644 9.37677V11.1499C4.75757 11.2057 4.76037 11.2726 4.75991 11.3279C4.75244 12.5592 4.74824 13.79 4.74357 15.0213C4.74217 15.4245 4.84532 15.5266 5.25511 15.528C6.63756 15.5341 8.02002 15.5393 9.40201 15.5449C9.49162 15.5449 9.5817 15.5458 9.68951 15.5458C9.68904 15.6821 9.68858 15.7828 9.68811 15.8831C9.67831 18.3686 9.66804 20.8541 9.65824 23.3396C9.65824 23.4173 9.65357 23.4956 9.65917 23.5733C9.67691 23.8178 9.80199 23.9503 10.0428 23.9517C11.5807 23.9611 13.1181 23.9672 14.656 23.9709C14.8894 23.9714 15.014 23.8562 15.0466 23.6234C15.2408 22.2203 15.4322 20.8161 15.6249 19.4125C15.687 18.9601 15.7514 18.5077 15.8214 18.0075C15.8475 18.0721 15.856 18.0852 15.8578 18.0993C16.0879 19.8907 16.318 21.6817 16.5476 23.4731C16.6037 23.9105 16.6835 23.9808 17.1287 23.9826C18.5578 23.9883 19.9865 23.9944 21.4156 24C21.8614 24.0018 21.9528 23.9133 21.9547 23.4754C21.9608 22.0596 21.9664 20.6438 21.9715 19.228L21.9995 16.2263L22 16.2268ZM13.5914 0.765279C13.6908 1.99609 12.2719 3.35664 10.7266 3.50745C9.13924 3.66247 7.6289 2.40684 7.42634 0.740457C9.48322 0.748887 11.5373 0.756849 13.5914 0.765279ZM9.70398 12.1269C9.69978 12.9451 9.69744 13.7633 9.69324 14.581C9.69324 14.6625 9.68531 14.7445 9.68158 14.8213C8.26038 14.8157 6.86673 14.8101 5.453 14.8044C5.453 14.7042 5.45393 14.6199 5.45393 14.5356C5.45627 13.9525 5.4586 13.3694 5.46047 12.7868H5.47354V9.2077C5.48007 8.39418 5.48427 7.58113 5.4796 6.76761C5.47774 6.45148 5.18463 6.31098 4.91673 6.48005C4.85139 6.52126 4.79118 6.57138 4.72863 6.61774C4.26751 6.95729 3.80591 7.29638 3.36205 7.62328C2.52707 6.77745 1.70982 5.94941 0.888846 5.1181C0.886979 5.12137 0.892113 5.10545 0.902848 5.09515C2.20969 3.79455 3.51187 2.48973 4.82618 1.19709C5.35125 0.680976 6.01634 0.668331 6.69124 0.726406C6.95074 2.81992 8.55022 4.08914 10.2421 4.21419C11.1056 4.27788 11.9079 4.07087 12.6294 3.5866C13.6366 2.91031 14.1911 1.94832 14.3498 0.762937C15.1979 0.660369 15.8947 0.865037 16.494 1.49918C17.6263 2.69768 18.8048 3.85262 19.966 5.02349C20.0257 5.08344 20.106 5.12325 20.1634 5.16259C19.2944 6.02716 18.4692 6.84817 17.6319 7.68136C17.5656 7.63265 17.4844 7.57411 17.4046 7.51416C16.9752 7.19287 16.5495 6.8669 16.1164 6.55077C15.8233 6.3372 15.5362 6.47396 15.5068 6.83318C15.5012 6.90297 15.504 6.97322 15.504 7.04347C15.4984 8.47708 15.4924 9.91069 15.4868 11.3443C15.4868 11.4347 15.4858 11.5251 15.4858 11.6347C15.371 11.6347 15.287 11.6337 15.2035 11.6337C13.5414 11.6272 11.8794 11.6202 10.2174 11.6141C9.81693 11.6127 9.70725 11.7218 9.70491 12.1264L9.70398 12.1269ZM21.2509 23.0211C21.2509 23.104 21.2504 23.1874 21.25 23.2782C19.8988 23.2726 18.5751 23.2675 17.2426 23.2623C17.2193 23.0881 17.1969 22.9265 17.1759 22.7645C16.9262 20.8344 16.6765 18.9044 16.4268 16.9743C16.3507 16.3875 16.2755 15.8006 16.1995 15.2143C16.1733 15.0105 16.0622 14.8756 15.8555 14.8691C15.6497 14.863 15.5255 14.9824 15.4938 15.1908C15.4868 15.2372 15.4746 15.2826 15.4686 15.3285C15.1577 17.6038 14.8478 19.879 14.537 22.1542C14.487 22.5209 14.432 22.8872 14.3797 23.2506C13.035 23.245 11.7179 23.2398 10.3938 23.2347C10.4055 20.3117 10.4171 17.4019 10.4288 14.4949H10.426V12.3592H10.4297C10.4297 12.3531 10.4297 12.3475 10.4297 12.3414C11.0272 12.3438 11.6134 12.3461 12.2206 12.3484C12.2206 12.3517 12.2206 12.3555 12.2206 12.3587H12.9678C12.9678 12.3587 12.9678 12.3541 12.9678 12.3517C13.5391 12.3541 14.1108 12.3564 14.6826 12.3587H21.2784V12.3873C21.2784 12.3873 21.2812 12.3873 21.2822 12.3873C21.2808 12.7184 21.2794 13.0346 21.2784 13.3638V14.1015C21.2812 14.1015 21.284 14.1015 21.2868 14.1015C21.284 14.8176 21.2812 15.5224 21.2784 16.2259L21.2766 16.7013C21.2756 16.8361 21.271 16.971 21.2752 17.1054L21.2696 18.6271C21.2663 18.6805 21.2696 18.7358 21.2691 18.7896C21.263 20.1998 21.2574 21.61 21.2518 23.0207L21.2509 23.0211Z" fill="white"/>
</svg>
